<?xml version="1.0" standalone="no"?>
<!DOCTYPE svg PUBLIC "-//W3C//DTD SVG 20010904//EN"
 "http://www.w3.org/TR/2001/REC-SVG-20010904/DTD/svg10.dtd">
<svg version="1.0" xmlns="http://www.w3.org/2000/svg"
 width="482.000000pt" height="482.000000pt" viewBox="0 0 482.000000 482.000000"
 preserveAspectRatio="xMidYMid meet">
<metadata>
Created by potrace 1.14, written by Peter Selinger 2001-2017
</metadata>
<g transform="translate(0.000000,482.000000) scale(0.100000,-0.100000)"
fill="#000000" stroke="none">
<path d="M2125 4805 c-242 -34 -355 -61 -560 -137 -765 -282 -1351 -964 -1515
-1762 -39 -193 -51 -336 -46 -555 2 -113 7 -217 10 -231 2 -14 10 -59 16 -100
104 -671 526 -1301 1112 -1661 298 -183 673 -313 999 -346 150 -16 520 -8 634
12 163 29 213 41 313 71 298 91 537 211 777 392 462 349 789 863 905 1423 41
203 50 307 46 549 -7 383 -80 685 -245 1019 -351 708 -1017 1194 -1806 1317
-140 22 -511 27 -640 9z"/>
</g>
</svg>
